<?xml version="1.0" encoding="utf-8"?>
<!-- Generator: Adobe Illustrator 26.3.1, SVG Export Plug-In . SVG Version: 6.00 Build 0)  -->
<svg version="1.1" id="Layer_1" xmlns="http://www.w3.org/2000/svg" xmlns:xlink="http://www.w3.org/1999/xlink" x="0px" y="0px"
	 viewBox="0 0 300 300" style="enable-background:new 0 0 300 300;" xml:space="preserve">
<style type="text/css">
	.st0{fill-rule:evenodd;clip-rule:evenodd;fill:#FFFFFF;}
</style>
<g>
	<path class="st0" d="M144.1,151c-1.2,0-2.3,0-3.2,0l0.1,28.3c0.7,0,1.5,0,2.4,0c10.4,0.2,33.2,0.7,33.3-14
		C176.9,150.5,154.8,150.8,144.1,151z"/>
	<path class="st0" d="M143.3,138.2c8.6,0.2,27.6,0.7,27.7-12.7c0.1-13.7-18.5-13.3-27.4-13.1c-0.9,0-1.7,0-2.4,0l0.1,25.7
		C141.9,138.1,142.6,138.2,143.3,138.2z"/>
	<path class="st0" d="M251.5,41.2c-20.1-1-67.9-5.1-101.4-23.2C116.6,36.1,68.7,40.1,48.6,41.1c-5.3,0.4-9.6,4.8-9.6,10.3v50.2
		C39,241,150,279,150,279s111-38,111-177.4V51.4C261.1,45.9,256.8,41.5,251.5,41.2z M202,168.2c-2,20.2-17.2,25.6-38.7,26.7
		l0.1,21.3h-12.9l0.1-21.1c-3.3-0.1-6.7-0.1-10.2-0.2l-0.1,21.3l-12.7-0.1l-0.1-21.4c-3,0-23.2,0.1-23.2,0.1l0.1-15.5l14.3-0.1
		l0.1-67.9h-16.4V97.8c0,0,23,0,25.8-0.1l-0.1-21.1l12.9-0.1v20.9c3.4-0.1,7-0.1,10.4-0.1l-0.1-20.6l12.8-0.1l-0.1,21.3
		c16.5,1.6,29.5,6.8,30.8,22c1,11.1-3.6,17.8-11.1,21.6C196.1,144.5,203.6,151.9,202,168.2z"/>
</g>
</svg>
